# xmcd
#
# Track frame offsets: 
#        150
#        16779
#        41627
#        55477
#        72066
#        91242
#        113424
#        132840
#        150613
#        163122
#        178559
#        195113
#
# Disc length: 2762 seconds
#
# Revision: 0
# Processed by: cddbd v1.5.2PL0 Copyright (c) Steve Scherf et al.
# Submitted via: ExactAudioCopy v1.3
#
DISCID=8b0ac80c
DTITLE=Joachim Palden - Guilty
DYEAR=2014
DGENRE=Blues
TTITLE0=Bristol City Bounce
TTITLE1=Guilty
TTITLE2=A Guy What Takes His Time
TTITLE3=Flip, Flop and Fly
TTITLE4=Little by Little
TTITLE5=Move Your Body Close To Me
TTITLE6=My Man Is Gone
TTITLE7=Drinkin' Wine, Spoo-Dee-O-Dee
TTITLE8=Honest I Do
TTITLE9=I'm Tore Down
TTITLE10=Don't You Make Me High
TTITLE11=Amos Boogie Woogie
EXTD=
EXTT0=
EXTT1=
EXTT2=
EXTT3=
EXTT4=
EXTT5=
EXTT6=
EXTT7=
EXTT8=
EXTT9=
EXTT10=
EXTT11=
PLAYORDER=
